# Blender v2.69 (sub 0) OBJ File: ''
# www.blender.org
o Cube_Cube.001
v -1.000000 -1.000000 1.000000
v -1.000000 -1.000000 -1.000000
v 1.000000 -1.000000 -1.000000
v 1.000000 -1.000000 1.000000
v -1.000000 1.000000 1.000000
v -1.000000 1.000000 -1.000000
v 1.000000 1.000000 -1.000000
v 1.000000 1.000000 1.000000
v -1.000000 0.000000 1.000000
v -1.000000 1.000000 0.000000
v -1.000000 0.000000 -1.000000
v -1.000000 -1.000000 0.000000
v 0.000000 1.000000 -1.000000
v 1.000000 0.000000 -1.000000
v 0.000000 -1.000000 -1.000000
v 1.000000 1.000000 0.000000
v 1.000000 0.000000 1.000000
v 1.000000 -1.000000 0.000000
v 0.000000 1.000000 1.000000
v 0.000000 -1.000000 1.000000
v -1.000000 0.000000 0.000000
v 0.000000 0.000000 -1.000000
v 1.000000 0.000000 0.000000
v 0.000000 0.000000 1.000000
v 0.000000 -1.000000 0.000000
v 0.000000 1.000000 0.000000
vn -1.000000 0.000000 0.000000
vn 0.000000 0.000000 -1.000000
vn 1.000000 0.000000 0.000000
vn 0.000000 0.000000 1.000000
vn 0.000000 -1.000000 0.000000
vn 0.000000 1.000000 0.000000
s off
f 21//1 11//1 2//1
f 22//2 14//2 3//2
f 23//3 17//3 4//3
f 24//4 9//4 1//4
f 25//5 15//5 3//5
f 26//6 13//6 6//6
f 9//1 21//1 12//1
f 5//1 10//1 21//1
f 10//1 6//1 11//1
f 11//2 22//2 15//2
f 6//2 13//2 22//2
f 13//2 7//2 14//2
f 14//3 23//3 18//3
f 7//3 16//3 23//3
f 16//3 8//3 17//3
f 17//4 24//4 20//4
f 8//4 19//4 24//4
f 19//4 5//4 9//4
f 20//5 25//5 18//5
f 1//5 12//5 25//5
f 12//5 2//5 15//5
f 19//6 26//6 10//6
f 8//6 16//6 26//6
f 16//6 7//6 13//6
f 12//1 21//1 2//1
f 15//2 22//2 3//2
f 18//3 23//3 4//3
f 20//4 24//4 1//4
f 18//5 25//5 3//5
f 10//6 26//6 6//6
f 1//1 9//1 12//1
f 9//1 5//1 21//1
f 21//1 10//1 11//1
f 2//2 11//2 15//2
f 11//2 6//2 22//2
f 22//2 13//2 14//2
f 3//3 14//3 18//3
f 14//3 7//3 23//3
f 23//3 16//3 17//3
f 4//4 17//4 20//4
f 17//4 8//4 24//4
f 24//4 19//4 9//4
f 4//5 20//5 18//5
f 20//5 1//5 25//5
f 25//5 12//5 15//5
f 5//6 19//6 10//6
f 19//6 8//6 26//6
f 26//6 16//6 13//6
